<?xml version="1.0" standalone="no"?>
<!DOCTYPE svg PUBLIC "-//W3C//DTD SVG 20010904//EN"
 "http://www.w3.org/TR/2001/REC-SVG-20010904/DTD/svg10.dtd">
<svg version="1.0" xmlns="http://www.w3.org/2000/svg"
 width="789.000000pt" height="227.000000pt" viewBox="0 0 789.000000 227.000000"
 preserveAspectRatio="xMidYMid meet">

<g transform="translate(0.000000,227.000000) scale(0.100000,-0.100000)"
fill="#000000" stroke="none">
<path d="M2763 2226 c17 -18 47 -43 66 -56 33 -23 35 -23 45 -5 6 10 22 29 35
42 25 24 23 53 -5 53 -13 0 -14 -3 -5 -14 8 -10 9 -16 1 -21 -5 -3 -10 -3 -10
2 0 15 -55 32 -107 32 l-53 0 33 -33z"/>
<path d="M5321 1845 c-1 -359 1 -415 14 -415 8 0 15 -4 15 -10 0 -5 -7 -7 -15
-4 -11 5 -14 -2 -13 -31 1 -30 4 -36 20 -32 22 6 24 -8 2 -17 -22 -8 -8 -25
40 -47 22 -10 34 -19 26 -19 -9 0 -32 9 -53 19 l-37 19 0 -224 0 -223 50 51
c28 28 50 56 50 63 0 19 37 57 45 45 3 -6 11 -8 16 -4 5 3 9 2 8 -3 -5 -18 21
-60 52 -86 l34 -28 3 147 c2 111 -1 149 -10 156 -10 6 -10 8 0 8 21 0 15 68
-8 80 -11 6 -20 20 -20 31 0 11 -7 22 -15 25 -13 5 -12 10 6 25 23 20 44 26
34 9 -3 -5 -1 -10 5 -10 7 0 10 69 9 217 -1 204 -2 219 -22 248 -12 16 -26 33
-32 37 -7 5 -6 8 2 8 6 0 20 -15 32 -32 l21 -33 0 223 0 222 -130 0 -129 0 0
-415z m109 131 c0 -3 -4 -8 -10 -11 -5 -3 -10 -1 -10 4 0 6 5 11 10 11 6 0 10
-2 10 -4z m50 -24 c0 -4 -9 -8 -20 -9 -16 -1 -17 1 -7 12 12 13 27 11 27 -3z
m-87 -3 c23 -12 81 -69 70 -69 -3 0 -21 11 -40 26 -18 14 -33 20 -33 14 0 -8
-6 -8 -20 0 -21 11 -28 40 -9 40 6 0 20 -5 32 -11z m121 -44 c3 -9 0 -15 -9
-15 -16 0 -27 14 -18 24 10 10 21 7 27 -9z m-14 -68 c0 -5 -4 -5 -10 -2 -5 3
-10 14 -10 23 0 15 2 15 10 2 5 -8 10 -19 10 -23z m-44 -74 c10 -10 12 -19 6
-21 -11 -3 -72 25 -72 33 0 13 51 3 66 -12z m108 -2 c3 -5 -1 -12 -10 -15 -8
-3 -12 -10 -9 -16 3 -5 1 -10 -4 -10 -6 0 -11 4 -11 9 0 5 -3 16 -6 25 -4 11
0 16 14 16 12 0 23 -4 26 -9z m-44 -67 c0 -7 12 -24 27 -38 35 -32 26 -43 -10
-12 -15 13 -27 33 -27 45 0 16 -6 21 -24 21 -14 0 -28 5 -32 12 -5 8 -2 9 9 5
10 -4 17 -2 17 5 0 6 9 3 20 -7 11 -10 20 -24 20 -31z m-20 -284 c0 -5 -12
-10 -26 -10 -14 0 -23 4 -19 10 3 6 15 10 26 10 10 0 19 -4 19 -10z m-63 -19
c10 -16 9 -18 -7 -14 -21 6 -36 33 -17 33 7 0 18 -9 24 -19z m-48 -5 c9 -10 8
-15 -2 -19 -15 -6 -50 17 -40 26 11 11 30 8 42 -7z m99 -34 c2 -8 -3 -10 -14
-5 -13 5 -11 0 6 -17 33 -33 10 -36 -35 -6 -24 16 -32 27 -24 30 8 2 21 7 29
9 20 7 33 3 38 -11z m-88 -22 c0 -5 -5 -10 -11 -10 -5 0 -7 5 -4 10 3 6 8 10
11 10 2 0 4 -4 4 -10z m124 -65 c7 -19 -5 -19 -30 0 -19 14 -19 14 2 15 12 0
24 -7 28 -15z m-58 -32 c-7 -7 -26 7 -26 19 0 6 6 6 15 -2 9 -7 13 -15 11 -17z"/>
<path d="M6111 1750 c0 -532 0 -529 41 -542 13 -5 2 -28 -13 -28 -6 0 -7 5 -4
10 3 5 2 10 -4 10 -5 0 -13 -5 -16 -10 -8 -13 4 -50 16 -50 6 0 7 5 4 10 -12
20 60 11 77 -10 17 -19 16 -19 -27 -13 -24 3 -51 3 -60 -1 -14 -5 -14 -8 0
-30 14 -21 14 -24 0 -29 -19 -8 -20 -37 -1 -37 8 0 17 -7 20 -15 4 -11 0 -15
-12 -13 -16 3 -17 -15 -19 -221 -1 -160 1 -227 10 -238 32 -39 49 -54 55 -47
4 3 1 9 -5 11 -7 3 -13 10 -13 16 0 15 88 16 110 2 14 -9 19 -11 38 -14 5 0 9
-8 9 -15 0 -10 -10 -14 -28 -13 -15 1 -25 5 -22 10 2 4 -12 7 -31 7 -39 0 -48
-15 -16 -25 11 -3 20 -10 20 -14 0 -4 17 -13 38 -20 37 -12 54 -41 25 -41 -7
0 -13 4 -13 9 0 5 -13 11 -30 13 -16 3 -30 1 -30 -4 0 -4 5 -8 10 -8 6 0 10
-4 10 -10 0 -16 -18 -12 -60 16 -43 29 -55 60 -19 51 16 -4 18 -3 8 9 -6 8
-19 14 -28 14 -9 0 -23 6 -30 13 -10 10 -11 -30 -6 -203 3 -118 8 -216 10
-218 10 -10 52 9 52 23 0 8 -4 15 -9 15 -15 0 -8 28 8 34 9 4 14 10 10 13 -4
4 3 12 15 19 14 7 18 14 10 18 -6 4 -11 2 -11 -3 0 -6 -5 -11 -11 -11 -5 0 -7
5 -3 12 4 6 -2 18 -12 26 -18 13 -18 14 6 7 29 -9 50 -34 43 -52 -3 -7 11 -29
31 -49 20 -20 34 -40 31 -43 -7 -12 57 -12 71 0 10 8 14 37 14 100 0 78 -2 88
-19 94 -12 3 -18 12 -15 20 3 8 12 11 20 8 8 -3 14 0 14 6 0 6 -12 11 -27 12
l-28 1 25 8 c22 6 23 8 7 15 -13 5 -24 1 -39 -14 -24 -27 -35 -21 -16 8 9 14
23 21 45 21 34 0 47 23 19 33 -17 7 -15 39 2 45 8 2 12 96 12 333 l0 330 -24
9 c-13 5 -27 14 -32 21 -5 9 -2 10 12 5 31 -12 36 -12 42 3 2 8 0 11 -6 7 -6
-3 -13 -2 -17 4 -3 5 1 10 9 10 29 0 16 14 -45 53 -49 32 -58 41 -48 53 9 11
9 14 -1 14 -8 0 -11 2 -9 4 5 5 55 -5 97 -18 l23 -8 -1 104 c-1 56 -1 174 -1
261 1 207 -3 206 132 15 30 -43 62 -81 72 -84 11 -3 16 -12 13 -20 -3 -8 3
-23 14 -34 11 -11 20 -23 20 -27 0 -4 19 -34 42 -68 23 -33 42 -61 43 -63 4
-5 161 20 184 29 23 9 23 10 5 24 -18 14 -18 14 4 15 22 0 31 23 12 35 -5 3
-7 0 -4 -9 4 -11 0 -13 -15 -9 -21 5 -25 38 -8 61 6 8 5 12 -4 13 -8 1 -23 2
-34 3 -11 0 -19 7 -18 14 5 20 -14 14 -20 -7 -3 -12 1 -22 9 -24 8 -3 6 -4 -3
-3 -10 1 -17 8 -16 14 2 7 -3 12 -10 12 -8 0 -7 4 3 11 12 9 12 10 -3 5 -10
-3 -25 -6 -33 -6 -10 0 -12 -5 -8 -12 6 -10 4 -10 -8 0 -12 9 -18 10 -23 2 -4
-7 2 -14 14 -17 17 -4 19 -8 10 -19 -18 -21 -35 -17 -66 17 -15 17 -45 42 -65
55 -37 24 -54 62 -22 50 8 -3 12 -2 9 4 -3 6 -13 10 -21 10 -8 0 -14 7 -14 15
0 17 16 20 26 4 4 -6 20 -8 40 -5 19 4 46 1 66 -7 18 -8 38 -12 44 -10 7 2 20
-7 30 -19 21 -26 92 -73 100 -66 5 6 -104 163 -140 202 -24 26 -28 27 -39 12
-10 -14 -12 -12 -12 16 0 18 -4 33 -10 33 -30 2 -56 20 -80 55 -15 22 -32 40
-36 40 -5 0 -9 5 -9 10 0 15 26 12 40 -5 7 -8 24 -21 40 -28 26 -14 26 -12
-14 46 -23 32 -49 71 -59 86 -9 14 -22 25 -27 23 -6 -1 -10 5 -10 14 0 9 -33
63 -72 120 l-73 104 -127 0 -128 0 1 -510z m204 450 c3 -5 1 -10 -4 -10 -6 0
-11 5 -11 10 0 6 2 10 4 10 3 0 8 -4 11 -10z m142 -337 c-8 -7 -37 9 -31 19 3
5 12 4 20 -3 8 -6 13 -14 11 -16z m97 -18 c-4 -8 1 -17 10 -21 9 -3 16 -17 16
-29 0 -13 5 -27 10 -30 6 -3 10 -11 10 -17 0 -20 -28 12 -54 63 -25 47 -25 49
-6 49 13 0 18 -5 14 -15z m-74 -5 c0 -5 -2 -10 -4 -10 -3 0 -8 5 -11 10 -3 6
-1 10 4 10 6 0 11 -4 11 -10z m180 -80 c0 -5 -2 -10 -4 -10 -3 0 -8 5 -11 10
-3 6 -1 10 4 10 6 0 11 -4 11 -10z m-416 -324 c-10 -26 -64 -30 -64 -5 0 13
17 11 26 -2 5 -8 10 -6 16 5 11 20 29 21 22 2z m520 -1 c11 -8 18 -17 15 -19
-7 -7 -49 13 -49 24 0 14 11 12 34 -5z m-493 -66 c-40 -8 -62 -2 -55 16 4 10
14 10 47 2 l42 -11 -34 -7z m-11 -49 c0 -5 -4 -10 -10 -10 -5 0 -10 5 -10 10
0 6 5 10 10 10 6 0 10 -4 10 -10z m65 -130 c3 -5 2 -10 -4 -10 -5 0 -13 5 -16
10 -3 6 -2 10 4 10 5 0 13 -4 16 -10z m-32 -31 c2 -8 6 -20 11 -28 5 -8 -2 -6
-19 5 -15 10 -23 20 -17 22 6 2 8 11 5 20 -5 13 -3 14 6 6 7 -6 13 -18 14 -25z
m21 -58 c11 -1 16 -4 12 -8 -10 -10 -89 -4 -101 8 -7 7 3 8 30 5 22 -2 49 -5
59 -5z m-4 -71 c-14 -4 -20 -8 -14 -9 6 -1 11 -8 11 -16 0 -17 -32 -12 -57 10
-8 7 -24 15 -35 18 -11 2 12 5 50 5 49 0 63 -2 45 -8z m34 -26 c3 -8 2 -12 -4
-9 -6 3 -10 10 -10 16 0 14 7 11 14 -7z m-49 -44 c3 -5 1 -10 -4 -10 -6 0 -11
5 -11 10 0 6 2 10 4 10 3 0 8 -4 11 -10z m-25 -115 c-7 -8 -26 -15 -43 -15
-37 0 -30 10 15 20 18 4 35 8 37 9 2 1 -2 -6 -9 -14z m70 -15 c0 -5 -4 -10 -9
-10 -6 0 -13 5 -16 10 -3 6 1 10 9 10 9 0 16 -4 16 -10z m-56 -460 c7 -7 3
-10 -14 -8 -19 2 -25 -2 -25 -17 0 -32 -14 -48 -31 -34 -8 6 -14 16 -14 21 0
5 -7 16 -15 24 -8 9 -15 20 -15 24 0 13 100 4 114 -10z"/>
<path d="M2715 2190 c-8 -13 4 -32 16 -25 5 4 9 1 9 -4 0 -6 5 -11 10 -11 15
0 12 19 -4 36 -17 17 -23 17 -31 4z"/>
<path d="M2600 2080 c0 -14 -6 -20 -16 -18 -10 2 -18 -5 -19 -14 -3 -16 6 -18
74 -18 79 0 101 9 101 42 0 20 -16 23 -39 9 -8 -5 -22 -6 -30 -2 -9 5 -28 11
-43 15 -24 5 -28 3 -28 -14z m115 -30 c-3 -5 -12 -10 -18 -10 -7 0 -6 4 3 10
19 12 23 12 15 0z"/>
<path d="M2980 2087 c0 -8 -7 -14 -16 -13 -9 0 -19 -6 -21 -14 -3 -9 -1 -11 4
-5 10 14 53 17 53 4 0 -5 4 -9 10 -9 5 0 8 10 6 23 -3 24 -36 37 -36 14z"/>
<path d="M2975 2040 c-3 -5 -1 -10 4 -10 6 0 11 5 11 10 0 6 -2 10 -4 10 -3 0
-8 -4 -11 -10z"/>
<path d="M1133 1985 c-3 -9 -3 -19 1 -22 10 -11 1028 -5 1039 6 29 29 -13 31
-519 31 -455 0 -515 -2 -521 -15z"/>
<path d="M2454 1989 c-16 -27 22 -31 327 -31 173 0 321 -4 330 -9 13 -7 18 -3
21 16 3 13 3 27 0 30 -11 11 -671 5 -678 -6z"/>
<path d="M3460 1963 c0 -28 3 -34 10 -23 8 13 58 15 336 17 250 2 329 5 335
15 4 6 5 16 3 20 -3 4 -158 8 -345 8 l-339 0 0 -37z"/>
<path d="M3315 1930 c-4 -6 -13 -9 -21 -6 -8 3 -11 0 -7 -10 3 -7 12 -14 20
-14 8 0 12 4 9 9 -4 5 0 11 6 14 7 2 10 7 7 11 -4 4 -10 2 -14 -4z"/>
<path d="M3294 1815 c-10 -8 -14 -15 -8 -15 6 0 17 7 24 15 16 19 9 19 -16 0z"/>
<path d="M3403 1815 c-10 -11 -9 -13 7 -12 11 1 20 7 20 14 0 17 -12 16 -27
-2z"/>
<path d="M3319 1768 c-1 -7 -1 -17 0 -22 1 -4 -4 -16 -11 -25 -11 -14 -11 -14
4 -3 13 10 17 10 21 0 6 -19 -53 -69 -75 -62 -22 6 -24 -11 -3 -20 24 -9 17
-30 -15 -45 -23 -10 -34 -10 -44 -1 -21 17 -32 -8 -13 -28 13 -12 19 -13 31
-2 9 7 24 10 35 7 10 -2 25 0 34 5 12 6 19 3 27 -11 14 -27 13 -44 -2 -38 -7
2 -12 11 -10 21 3 18 -23 22 -33 5 -4 -6 -13 -8 -20 -5 -20 7 -26 -5 -12 -22
10 -13 9 -14 -2 -7 -11 6 -13 4 -8 -8 3 -10 3 -17 -2 -17 -5 0 -12 11 -15 25
-4 14 -11 23 -15 20 -5 -3 -12 1 -14 7 -3 8 -6 6 -6 -4 -1 -10 4 -18 9 -18 6
0 10 -9 10 -19 0 -11 -4 -23 -10 -26 -5 -3 -10 -23 -10 -43 0 -25 3 -32 9 -23
5 7 6 21 4 31 -3 10 0 21 7 25 7 4 11 1 9 -6 -1 -8 -1 -22 0 -33 1 -15 4 -16
15 -7 10 8 16 9 21 1 4 -6 12 -10 18 -9 36 4 48 -2 45 -23 -2 -15 -9 -22 -21
-22 -9 1 -17 -2 -17 -7 0 -16 41 -9 67 11 14 11 32 20 39 20 17 0 64 44 64 60
0 8 -9 11 -25 8 -17 -4 -25 -1 -25 9 0 8 -4 12 -9 8 -5 -3 -3 9 6 26 9 17 23
33 32 36 13 3 17 22 19 105 3 93 2 100 -13 84 -9 -9 -22 -16 -29 -16 -22 0
-47 25 -49 48 -1 23 -16 31 -18 10z m87 -115 c-11 -11 -17 4 -9 23 7 18 8 18
11 1 2 -10 1 -21 -2 -24z m-166 -178 c-14 -17 -30 -20 -30 -5 0 6 7 10 15 10
8 0 15 5 15 12 0 6 3 8 6 5 4 -4 1 -13 -6 -22z m75 -4 c-3 -6 -11 -11 -17 -11
-6 0 -6 6 2 15 14 17 26 13 15 -4z"/>
<path d="M3224 1739 c-3 -6 -17 -8 -30 -5 -23 6 -24 4 -24 -44 0 -42 3 -50 18
-50 21 0 59 36 49 46 -3 4 0 13 8 21 8 8 15 21 15 29 0 16 -26 19 -36 3z"/>
<path d="M3275 1710 c-3 -5 -1 -10 4 -10 6 0 11 5 11 10 0 6 -2 10 -4 10 -3 0
-8 -4 -11 -10z"/>
<path d="M6410 1677 c0 -24 5 -37 13 -37 7 0 31 -26 53 -57 22 -32 123 -177
224 -323 316 -456 514 -742 581 -838 35 -51 114 -163 174 -250 l110 -157 150
0 c134 0 150 2 153 17 3 16 -11 18 -150 20 l-153 3 -570 822 c-314 452 -574
825 -578 829 -4 4 -7 -9 -7 -29z"/>
<path d="M4758 1663 c7 -3 16 -2 19 1 4 3 -2 6 -13 5 -11 0 -14 -3 -6 -6z"/>
<path d="M4771 1614 c0 -11 3 -14 6 -6 3 7 2 16 -1 19 -3 4 -6 -2 -5 -13z"/>
<path d="M7590 1619 c0 -5 5 -7 10 -4 6 3 10 8 10 11 0 2 -4 4 -10 4 -5 0 -10
-5 -10 -11z"/>
<path d="M4662 1601 c-15 -9 -15 -17 -1 -44 12 -21 28 -14 26 13 -1 10 -5 16
-11 13 -5 -4 -7 1 -3 10 7 19 7 20 -11 8z"/>
<path d="M4720 1590 c0 -19 3 -21 12 -12 9 9 9 15 0 24 -9 9 -12 7 -12 -12z"/>
<path d="M7595 1580 c-3 -5 2 -18 12 -30 18 -21 43 -27 43 -10 0 6 -4 10 -9
10 -5 0 -13 9 -16 20 -7 21 -20 26 -30 10z"/>
<path d="M4635 1550 c3 -5 8 -10 11 -10 2 0 4 5 4 10 0 6 -5 10 -11 10 -5 0
-7 -4 -4 -10z"/>
<path d="M4721 1530 c0 -20 -6 -41 -12 -47 -9 -9 -6 -10 10 -6 26 7 38 23 23
32 -5 3 -12 17 -15 31 -3 20 -5 17 -6 -10z"/>
<path d="M4770 1537 c0 -14 5 -29 10 -32 7 -4 8 3 4 22 -9 38 -14 42 -14 10z"/>
<path d="M4677 1373 c-2 -5 -7 -21 -11 -36 -5 -21 -3 -28 5 -25 7 2 14 19 16
36 4 30 -1 41 -10 25z"/>
<path d="M3421 1354 c0 -11 3 -14 6 -6 3 7 2 16 -1 19 -3 4 -6 -2 -5 -13z"/>
<path d="M6936 1342 c-3 -5 1 -9 9 -9 8 0 15 4 15 9 0 4 -4 8 -9 8 -6 0 -12
-4 -15 -8z"/>
<path d="M3170 1326 c0 -10 9 -20 20 -23 11 -3 20 -9 20 -13 0 -5 3 -16 6 -24
5 -12 2 -15 -10 -10 -9 3 -16 1 -16 -6 0 -6 -4 -8 -10 -5 -6 4 -10 -26 -10
-84 0 -49 5 -93 10 -96 6 -3 10 -12 10 -18 0 -7 -4 -6 -10 3 -7 11 -10 -3 -10
-47 0 -51 3 -63 16 -63 8 0 12 -5 9 -10 -4 -6 -10 -8 -15 -5 -4 3 -8 -29 -8
-70 1 -55 5 -75 15 -80 8 -3 19 -2 25 1 5 3 9 0 7 -7 -1 -8 -1 -21 0 -29 1
-12 4 -12 15 3 8 11 17 14 20 8 11 -17 2 -71 -11 -71 -17 0 -17 -32 0 -49 10
-11 9 -12 -2 -6 -9 5 -8 -1 4 -18 15 -24 51 -44 60 -35 11 10 35 79 26 74 -5
-4 -12 -2 -16 4 -3 5 1 10 9 10 9 0 16 8 16 19 0 17 18 31 40 31 5 0 11 -8 14
-18 4 -10 13 -19 21 -19 18 0 20 38 3 55 -7 7 -8 12 -2 12 5 0 10 9 11 20 2
18 -1 19 -20 8 -20 -10 -21 -10 -8 5 11 14 11 17 0 17 -8 0 -21 -4 -29 -10 -9
-5 -19 -5 -27 2 -10 8 -13 6 -13 -5 0 -9 -4 -18 -9 -22 -6 -3 -8 4 -6 15 2 11
1 18 -4 16 -4 -3 -18 13 -31 35 -14 21 -28 39 -32 39 -4 0 -6 9 -5 20 1 20 17
29 17 10 0 -15 40 -51 50 -45 4 3 10 0 12 -5 2 -7 11 -4 23 5 20 16 19 16 -4
9 -21 -5 -23 -3 -18 15 3 11 1 24 -4 27 -6 4 -6 11 0 18 6 7 9 15 7 17 -8 9
-15 70 -7 65 4 -3 18 4 30 15 12 11 35 25 52 31 30 10 35 28 9 36 -7 3 -10 0
-6 -7 4 -7 -1 -11 -13 -11 -11 0 -23 -4 -26 -10 -10 -16 -23 -11 -21 7 3 20
-21 49 -32 39 -3 -4 0 -11 7 -15 8 -5 10 -14 6 -22 -6 -9 -11 -6 -18 12 -9 22
-10 23 -14 4 -9 -39 -22 -37 -21 4 0 30 -5 47 -21 60 -11 10 -21 24 -21 31 0
9 6 7 20 -5 20 -18 25 -11 14 19 -3 9 -11 13 -17 9 -6 -4 -7 -1 -2 7 9 14 -13
120 -28 135 -7 7 -8 6 -3 -2 9 -17 -16 -17 -32 -1 -9 9 -12 8 -12 -6z m115
-357 c-6 -33 -15 -36 -15 -6 0 15 4 27 9 27 6 0 8 -10 6 -21z m-75 -81 c0 -6
-6 -5 -15 2 -8 7 -15 14 -15 16 0 2 7 1 15 -2 8 -4 15 -11 15 -16z m90 -128
c0 -5 -2 -10 -4 -10 -3 0 -8 5 -11 10 -3 6 -1 10 4 10 6 0 11 -4 11 -10z m20
-130 c0 -5 -5 -10 -11 -10 -5 0 -7 5 -4 10 3 6 8 10 11 10 2 0 4 -4 4 -10z"/>
<path d="M4772 1320 c0 -14 2 -19 5 -12 2 6 2 18 0 25 -3 6 -5 1 -5 -13z"/>
<path d="M6740 1305 c7 -8 16 -12 21 -9 13 8 1 24 -18 24 -13 0 -13 -3 -3 -15z"/>
<path d="M4694 1299 c-10 -17 11 -33 32 -21 16 9 16 10 -4 21 -15 8 -23 8 -28
0z"/>
<path d="M4605 1290 c-3 -5 -1 -10 4 -10 6 0 11 5 11 10 0 6 -2 10 -4 10 -3 0
-8 -4 -11 -10z"/>
<path d="M1770 1280 c0 -5 -6 -7 -14 -4 -33 13 -84 -78 -55 -97 11 -6 10 -9
-4 -15 -9 -3 -17 -12 -17 -20 0 -19 36 -18 44 1 3 8 12 15 21 15 9 0 34 18 55
40 22 22 51 45 65 50 14 5 25 16 25 25 0 12 -13 15 -60 15 -33 0 -60 -4 -60
-10z"/>
<path d="M3387 1283 c7 -2 15 -4 19 -3 4 1 11 -4 15 -12 7 -10 9 -9 9 5 0 12
-8 17 -27 16 -16 0 -22 -3 -16 -6z"/>
<path d="M4758 1239 c-3 -22 -8 -24 -54 -24 -61 -1 -91 -19 -72 -43 11 -13 10
-14 -9 -4 -12 7 -33 12 -47 12 -14 0 -26 6 -27 13 0 6 -4 3 -9 -8 -5 -11 -9
-264 -9 -562 l-1 -543 124 0 123 0 6 53 c3 28 3 200 1 381 -3 248 -7 332 -17
338 -8 5 -9 8 0 8 6 0 10 8 8 18 -1 9 2 22 7 29 12 15 2 333 -11 346 -6 6 -11
0 -13 -14z m-101 -95 c-3 -3 -12 -4 -19 -1 -8 3 -5 6 6 6 11 1 17 -2 13 -5z"/>
<path d="M6333 1245 c-10 -11 -7 -16 13 -29 24 -17 24 -16 22 14 -2 32 -15 38
-35 15z"/>
<path d="M3328 1192 c-38 -17 -48 -35 -27 -48 6 -3 27 10 47 30 40 40 36 43
-20 18z"/>
<path d="M1952 1178 c-7 -7 -16 -13 -20 -13 -4 -1 -18 -7 -30 -14 -13 -7 -34
-10 -47 -7 -13 3 -27 1 -30 -4 -4 -6 -11 -8 -16 -5 -5 4 -9 1 -9 -5 0 -6 -4
-9 -9 -6 -5 3 -18 -10 -30 -29 -15 -27 -17 -35 -6 -35 7 0 16 6 19 13 5 10 7
10 12 0 4 -10 40 -13 130 -13 75 0 123 4 119 9 -3 5 -1 12 5 16 5 3 10 13 10
21 0 10 -5 12 -12 8 -21 -13 -50 -12 -55 3 -3 7 -15 13 -27 13 -15 0 -17 -3
-7 -9 9 -6 10 -11 2 -15 -6 -4 -11 -4 -11 1 0 4 -5 1 -10 -7 -8 -13 -10 -12
-10 3 0 14 -5 17 -20 12 -11 -3 -20 -2 -20 4 0 15 14 21 60 25 50 5 53 8 37
30 -10 14 -15 14 -25 4z"/>
<path d="M2005 1180 c-3 -5 -1 -10 4 -10 6 0 11 5 11 10 0 6 -2 10 -4 10 -3 0
-8 -4 -11 -10z"/>
<path d="M3346 1137 c3 -10 9 -15 12 -12 3 3 0 11 -7 18 -10 9 -11 8 -5 -6z"/>
<path d="M1711 1094 c0 -11 3 -14 6 -6 3 7 2 16 -1 19 -3 4 -6 -2 -5 -13z"/>
<path d="M3375 1100 c-3 -5 -1 -10 4 -10 6 0 11 5 11 10 0 6 -2 10 -4 10 -3 0
-8 -4 -11 -10z"/>
<path d="M1635 1070 c-18 -8 -17 -9 7 -9 15 -1 30 4 33 9 7 12 -12 12 -40 0z"/>
<path d="M1135 1020 c-3 -6 -4 -18 -1 -28 5 -16 35 -17 465 -12 346 4 463 8
472 17 7 7 9 16 5 20 -12 13 -933 15 -941 3z"/>
<path d="M3333 921 c-1 -14 3 -17 18 -14 23 6 25 19 3 27 -21 8 -20 9 -21 -13z"/>
<path d="M3356 881 c-3 -5 1 -11 9 -15 8 -3 15 -1 15 4 0 13 -18 22 -24 11z"/>
<path d="M3390 879 c0 -5 5 -7 10 -4 6 3 10 8 10 11 0 2 -4 4 -10 4 -5 0 -10
-5 -10 -11z"/>
<path d="M5553 864 c-12 -13 -18 -24 -12 -24 6 0 8 -4 4 -9 -3 -6 4 -15 15
-21 19 -10 20 -8 20 35 0 25 -1 45 -2 44 -2 -1 -13 -12 -25 -25z"/>
<path d="M3410 855 c0 -8 2 -15 4 -15 2 0 6 7 10 15 3 8 1 15 -4 15 -6 0 -10
-7 -10 -15z"/>
<path d="M3360 820 c0 -5 5 -10 11 -10 5 0 7 5 4 10 -3 6 -8 10 -11 10 -2 0
-4 -4 -4 -10z"/>
<path d="M5320 695 c0 -104 2 -125 15 -125 8 0 15 7 15 15 0 40 61 -6 67 -51
3 -20 0 -24 -24 -24 -20 0 -24 -3 -14 -9 7 -5 9 -10 3 -12 -6 -2 1 -12 14 -22
17 -12 24 -14 22 -5 -2 7 3 12 10 10 7 -1 24 -3 37 -4 13 -1 21 -6 19 -10 -3
-4 4 -15 16 -25 11 -10 20 -23 20 -29 0 -7 7 -14 15 -18 26 -10 17 -27 -11
-20 -20 5 -25 4 -19 -5 4 -7 0 -18 -10 -25 -16 -12 -16 -13 -1 -19 11 -4 16
-18 16 -42 0 -19 5 -35 11 -35 5 0 7 -5 3 -11 -4 -8 -13 -4 -25 12 -13 17 -19
19 -19 9 0 -13 -2 -13 -9 -1 -5 8 -7 20 -4 28 6 17 -7 16 -29 -1 -19 -14 -25
-32 -8 -21 6 3 10 -1 10 -10 0 -10 12 -26 26 -37 17 -14 24 -27 21 -40 -5 -16
-2 -19 17 -14 15 4 28 -1 41 -17 11 -12 18 -23 17 -24 -6 -8 -1 -23 8 -23 16
0 12 119 -4 135 -7 8 -16 12 -19 9 -3 -3 -3 3 0 15 3 12 12 21 19 21 12 0 14
42 14 240 0 132 -3 240 -7 241 -5 0 -18 2 -30 3 -12 1 -20 -1 -16 -6 5 -10
-55 -4 -65 6 -3 4 -15 -11 -27 -31 -18 -33 -25 -37 -50 -34 -39 4 -50 12 -34
22 8 5 9 9 3 9 -6 0 -10 18 -8 44 2 31 -2 46 -12 50 -12 4 -14 -16 -14 -119z"/>
<path d="M3177 703 c-14 -13 -6 -22 15 -18 34 7 47 25 17 25 -14 0 -29 -3 -32
-7z"/>
<path d="M5320 546 c0 -9 7 -13 20 -11 11 2 22 0 25 -6 9 -14 27 -11 23 4 -3
6 -10 12 -15 12 -6 0 -15 3 -19 8 -13 12 -34 8 -34 -7z"/>
<path d="M840 285 l0 -205 130 0 130 0 0 50 c0 43 -3 52 -23 59 -13 5 -29 16
-36 25 -11 13 -11 17 3 22 9 3 13 10 10 15 -3 6 5 7 22 3 19 -5 25 -4 20 5 -8
12 -35 15 -60 5 -9 -3 -13 -10 -10 -15 3 -5 -2 -6 -10 -3 -9 3 -16 1 -16 -5 0
-6 5 -11 11 -11 5 0 7 -4 4 -10 -11 -18 -33 -11 -28 10 4 16 1 18 -23 14 l-29
-4 25 20 c14 11 31 20 38 20 6 0 12 4 12 9 0 16 -50 -1 -68 -24 -14 -18 -20
-19 -29 -9 -16 16 -30 81 -38 167 -5 48 -11 67 -21 67 -12 0 -14 -35 -14 -205z"/>
<path d="M256 391 c-14 -5 -16 -10 -8 -15 17 -10 5 -27 -13 -20 -8 4 -12 11
-8 18 3 6 2 7 -3 3 -5 -5 -9 -13 -9 -18 0 -5 -4 -8 -10 -6 -5 1 -9 5 -8 10 2
4 -2 7 -7 7 -5 0 -10 -3 -10 -7 0 -5 -18 -27 -40 -49 -21 -23 -37 -43 -35 -46
2 -2 -9 -12 -26 -23 -28 -19 -29 -23 -29 -92 l0 -72 130 0 129 -1 0 147 c1
167 -5 183 -53 164z m30 -193 c-3 -24 -18 -39 -33 -34 -8 3 -11 1 -8 -4 3 -6
-4 -10 -17 -10 -21 1 -21 3 12 30 38 32 49 36 46 18z m-86 -63 c0 -14 -46 -33
-56 -22 -4 4 26 24 54 36 1 1 2 -6 2 -14z"/>
<path d="M1076 310 c-19 -6 -19 -7 -1 -13 20 -8 29 -4 24 11 -2 5 -13 6 -23 2z"/>
<path d="M1058 213 c7 -3 16 -2 19 1 4 3 -2 6 -13 5 -11 0 -14 -3 -6 -6z"/>
<path d="M5500 100 c0 -15 7 -20 25 -20 23 0 24 2 15 20 -6 11 -17 20 -25 20
-8 0 -15 -9 -15 -20z"/>
<path d="M10 43 c1 -30 19 -33 171 -31 137 3 154 5 157 20 3 17 -10 18 -162
18 -91 0 -166 -3 -166 -7z"/>
<path d="M810 30 c10 -19 21 -20 160 -20 139 0 150 1 160 20 11 20 8 20 -160
20 -168 0 -171 0 -160 -20z"/>
<path d="M3130 41 c0 -26 33 -31 176 -29 132 3 149 5 152 20 3 17 -10 18 -162
18 -91 0 -166 -4 -166 -9z"/>
<path d="M4490 43 c1 -30 19 -33 171 -31 137 3 154 5 157 20 3 17 -10 18 -162
18 -91 0 -166 -3 -166 -7z"/>
<path d="M5292 33 c3 -16 19 -18 158 -18 139 0 155 2 158 18 3 16 -10 17 -158
17 -148 0 -161 -1 -158 -17z"/>
<path d="M6082 33 c3 -16 20 -18 152 -21 143 -2 176 3 176 29 0 5 -75 9 -166
9 -152 0 -165 -1 -162 -17z"/>
</g>
</svg>
